<svg width="38" height="38" viewBox="0 0 38 38" fill="none" xmlns="http://www.w3.org/2000/svg">
<path d="M29.6253 9.75H8.04199C5.48768 9.75 3.41699 11.8207 3.41699 14.375V18.5697L13.958 22.0833H23.7093L34.2503 18.5697V14.375C34.2503 11.8207 32.1796 9.75 29.6253 9.75Z" fill="#F899CC"/>
<path d="M15.7503 9.75V8.20833H21.917V9.75H25.0003V8.20833C24.9984 6.50626 23.6191 5.12694 21.917 5.125H15.7503C14.0482 5.12694 12.6689 6.50626 12.667 8.20833V9.75H15.7503ZM13.958 22.0833L3.41699 18.5696V28.25C3.41978 30.8032 5.48882 32.8722 8.04199 32.875H29.6253C32.1785 32.8722 34.2475 30.8032 34.2503 28.25V18.5696L23.7093 22.0833H13.958Z" fill="#ED017F"/>
</svg>
