<svg width="37" height="38" viewBox="0 0 37 38" fill="none" xmlns="http://www.w3.org/2000/svg">
<path d="M23.1251 3.58331C17.9186 3.5855 13.4565 7.30585 12.5181 12.4271C16.9996 9.97471 22.6206 11.6197 25.073 16.1012C26.587 18.8679 26.587 22.2153 25.073 24.982C30.9333 23.9085 34.8138 18.2875 33.7403 12.4272C32.8016 7.30275 28.3348 3.58134 23.1251 3.58331Z" fill="#FCE0EF"/>
<path d="M10.7918 34.4167C15.049 34.4167 18.5002 30.9655 18.5002 26.7083C18.5002 22.4511 15.049 19 10.7918 19C6.53463 19 3.0835 22.4511 3.0835 26.7083C3.0835 30.9655 6.53463 34.4167 10.7918 34.4167Z" fill="#ED017F"/>
<path d="M16.9581 11.2917C12.2046 11.2922 8.2252 14.8955 7.75439 19.6257C11.6638 17.946 16.1945 19.7536 17.8742 23.6629C18.7084 25.6046 18.7084 27.8037 17.8742 29.7454C22.9575 29.24 26.6686 24.7094 26.1632 19.6261C25.6927 14.8951 21.7124 11.2913 16.9581 11.2917Z" fill="#F899CC"/>
</svg>
