<svg width="37" height="37" viewBox="0 0 37 37" fill="none" xmlns="http://www.w3.org/2000/svg">
<path d="M23.1251 3.08331C17.9186 3.0855 13.4565 6.80585 12.5181 11.9271C16.9996 9.47471 22.6206 11.1197 25.073 15.6012C26.587 18.3679 26.587 21.7153 25.073 24.482C30.9333 23.4085 34.8138 17.7875 33.7403 11.9272C32.8016 6.80275 28.3348 3.08134 23.1251 3.08331Z" fill="#FCE0EF"/>
<path d="M10.7918 33.9167C15.049 33.9167 18.5002 30.4655 18.5002 26.2083C18.5002 21.9511 15.049 18.5 10.7918 18.5C6.53463 18.5 3.0835 21.9511 3.0835 26.2083C3.0835 30.4655 6.53463 33.9167 10.7918 33.9167Z" fill="#ED017F"/>
<path d="M16.9581 10.7917C12.2046 10.7922 8.2252 14.3955 7.75439 19.1257C11.6638 17.446 16.1945 19.2536 17.8742 23.1629C18.7084 25.1046 18.7084 27.3037 17.8742 29.2454C22.9575 28.74 26.6686 24.2094 26.1632 19.1261C25.6927 14.3951 21.7124 10.7913 16.9581 10.7917Z" fill="#F899CC"/>
</svg>
