<svg width="38" height="38" viewBox="0 0 38 38" fill="none" xmlns="http://www.w3.org/2000/svg">
<path d="M28.0103 23.0421L24.2703 26.481C22.3471 28.1575 20.0876 29.4032 17.6434 30.1346L18.6358 34.7645C18.6865 35.0009 18.7921 35.222 18.944 35.4101C19.0959 35.5982 19.29 35.7479 19.5104 35.8472C19.7309 35.9465 19.9716 35.9925 20.2131 35.9816C20.4547 35.9707 20.6902 35.9032 20.9009 35.7845L26.9215 32.3887C27.7689 31.8739 28.4308 31.1031 28.8118 30.1877C29.1928 29.2723 29.2731 28.2596 29.0413 27.2955L28.0103 23.0421ZM11.8676 14.0295L15.0877 10.2064L11.0719 9.23745C10.0957 8.89702 9.02919 8.92138 8.06948 9.30603C7.10977 9.69067 6.32167 10.4096 5.85076 11.3301L2.4588 17.3424C2.33995 17.553 2.27231 17.7886 2.26135 18.0302C2.25039 18.2718 2.29642 18.5125 2.39571 18.733C2.495 18.9535 2.64478 19.1475 2.83293 19.2994C3.02108 19.4513 3.24233 19.5569 3.47879 19.6074L8.21595 20.6229C9.0013 18.2122 10.2408 15.9742 11.8676 14.0295ZM26.4643 14.0918C26.9217 14.0918 27.3688 13.9561 27.749 13.702C28.1293 13.4479 28.4257 13.0868 28.6008 12.6642C28.7758 12.2417 28.8216 11.7767 28.7324 11.3281C28.6431 10.8795 28.4229 10.4675 28.0995 10.1441C27.7761 9.82066 27.364 9.60042 26.9154 9.51119C26.4669 9.42196 26.0019 9.46776 25.5793 9.64279C25.1568 9.81781 24.7956 10.1142 24.5415 10.4945C24.2874 10.8748 24.1518 11.3219 24.1518 11.7793C24.152 12.3925 24.3957 12.9806 24.8294 13.4142C25.263 13.8478 25.851 14.0915 26.4643 14.0918Z" fill="#ED017F"/>
<path d="M35.5098 3.67891C35.4402 3.41486 35.3018 3.17399 35.1087 2.98091C34.9156 2.78782 34.6748 2.64944 34.4107 2.57987C31.2482 1.75781 27.9178 1.84596 24.8032 2.83417C21.6886 3.82239 18.9166 5.67045 16.8065 8.16543L11.8676 14.0295C9.40034 16.9723 7.83515 20.5648 7.36006 24.3755C7.32959 24.6097 7.35331 24.8478 7.4294 25.0713C7.50549 25.2949 7.63191 25.498 7.79891 25.665L12.5782 30.4443C12.7213 30.5875 12.8912 30.7011 13.0783 30.7786C13.2653 30.8561 13.4657 30.896 13.6682 30.896C13.7126 30.896 13.757 30.8938 13.8022 30.89C17.6714 30.5703 21.3381 29.0259 24.2701 26.481L29.9174 21.2885C32.4212 19.1839 34.276 16.4117 35.266 13.2943C36.256 10.1769 36.3406 6.84247 35.5098 3.67891ZM26.4642 14.0917C26.0069 14.0917 25.5598 13.956 25.1795 13.7019C24.7992 13.4478 24.5028 13.0867 24.3278 12.6641C24.1527 12.2416 24.1069 11.7766 24.1962 11.328C24.2854 10.8794 24.5056 10.4674 24.8291 10.144C25.1525 9.82058 25.5645 9.60033 26.0131 9.5111C26.4617 9.42188 26.9266 9.46767 27.3492 9.6427C27.7717 9.81773 28.1329 10.1141 28.387 10.4944C28.6411 10.8747 28.7767 11.3218 28.7767 11.7792C28.7765 12.3924 28.5328 12.9805 28.0992 13.4141C27.6655 13.8477 27.0775 14.0914 26.4642 14.0917Z" fill="#F899CC"/>
</svg>
